<svg id="Capa_1" data-name="Capa 1" xmlns="http://www.w3.org/2000/svg" viewBox="0 0 154.36 142.11"><defs><style>.cls-1{fill:#F95738;}</style></defs><title>icons_portal</title><path class="cls-1" d="M125.78,7.76A11.45,11.45,0,0,0,114.34,19.2v2.06L47.53,48a2.85,2.85,0,0,0-1.79,2.65v40a2.85,2.85,0,0,0,1.79,2.65L114.34,120v2.07a11.44,11.44,0,1,0,22.87,0V19.2A11.45,11.45,0,0,0,125.78,7.76Zm5.71,114.34a5.72,5.72,0,1,1-11.43,0v-4a2.84,2.84,0,0,0-1.8-2.65L51.45,88.72V52.58l66.81-26.73a2.84,2.84,0,0,0,1.8-2.65v-4a5.72,5.72,0,1,1,11.43,0Z"/><path class="cls-1" d="M48.6,47.78h-20a22.87,22.87,0,0,0,0,45.74h20a2.86,2.86,0,0,0,2.85-2.86v-40A2.86,2.86,0,0,0,48.6,47.78Zm-2.86,40H28.59a17.15,17.15,0,1,1,0-34.3H45.74Z"/><path class="cls-1" d="M152.41,59.36l-17.16-5.72a2.87,2.87,0,0,0-3.76,2.72V84.94a2.85,2.85,0,0,0,1.19,2.32,2.82,2.82,0,0,0,1.67.54,2.79,2.79,0,0,0,.9-.15l17.16-5.71a2.85,2.85,0,0,0,2-2.71V62.07A2.85,2.85,0,0,0,152.41,59.36Zm-3.77,17.8L137.21,81V60.32l11.43,3.81Z"/><path class="cls-1" d="M62.62,126.37l-2.87-2.87L51.37,90A2.87,2.87,0,0,0,48.6,87.8H25.73a2.86,2.86,0,0,0-2.79,3.51l11.44,48.6a2.86,2.86,0,0,0,2.78,2.2,2.47,2.47,0,0,0,.54-.05l21.47-4.14.08,0a7,7,0,0,0,3.33-1.81,6.88,6.88,0,0,0,0-9.72ZM58.56,132a1.13,1.13,0,0,1-.53.3l-18.71,3.62-10-42.41h17l8,32.13a2.89,2.89,0,0,0,.75,1.33l3.42,3.42a1.13,1.13,0,0,1,.33.81A1.12,1.12,0,0,1,58.56,132Z"/><rect class="cls-1" x="114.34" y="22.06" width="5.72" height="97.19"/></svg>
